G04 PROTEUS GERBER X2 FILE*
%TF.GenerationSoftware,Labcenter,Proteus,8.9-SP0-Build27865*%
%TF.CreationDate,2020-10-08T22:41:29+00:00*%
%TF.FileFunction,Copper,L2,Bot*%
%TF.FilePolarity,Positive*%
%TF.Part,Single*%
%TF.SameCoordinates,{0b1cd8f1-c089-4694-997e-405263033d43}*%
%FSLAX45Y45*%
%MOMM*%
G01*
%TA.AperFunction,Conductor*%
%ADD18C,0.381000*%
%ADD19C,0.635000*%
%TA.AperFunction,ViaPad*%
%ADD10C,1.270000*%
%TA.AperFunction,Conductor*%
%ADD70C,0.508000*%
%TA.AperFunction,ComponentPad*%
%ADD11R,1.270000X1.270000*%
%ADD12C,1.270000*%
%TA.AperFunction,WasherPad*%
%ADD13R,1.650000X1.650000*%
%TA.AperFunction,ComponentPad*%
%ADD14C,1.650000*%
%TA.AperFunction,SMDPad,CuDef*%
%ADD71R,1.016000X1.524000*%
%TA.AperFunction,WasherPad*%
%ADD15R,1.580000X1.580000*%
%TA.AperFunction,ComponentPad*%
%ADD16C,1.580000*%
%TA.AperFunction,Profile*%
%ADD17C,0.203200*%
%TD.AperFunction*%
D18*
X+1905000Y-889000D02*
X+1905000Y-381000D01*
X+635000Y-2667000D02*
X+828040Y-2667000D01*
X+635000Y-2667000D02*
X+635000Y-2540000D01*
X+762000Y-2413000D01*
X+762000Y-2159000D01*
X+635000Y-2032000D01*
X+635000Y-1905000D01*
X+889000Y-1905000D02*
X+1079500Y-1714500D01*
X+1460500Y-1714500D01*
X+1905000Y-2159000D01*
X+571500Y-2413000D02*
X+508000Y-2476500D01*
X+508000Y-2730500D01*
X+444500Y-2794000D01*
X+190500Y-2794000D01*
X+127000Y-2730500D01*
X+127000Y-254000D01*
X+190500Y-190500D01*
X+444500Y-190500D01*
X+508000Y-254000D01*
X+508000Y-508000D01*
X+571500Y-571500D01*
X+698500Y-571500D01*
X+889000Y-381000D01*
X+571500Y-2413000D02*
X+508000Y-2349500D01*
X+508000Y-2032000D01*
X+381000Y-1905000D01*
X+571500Y-2413000D02*
X+635000Y-2413000D01*
X+635000Y-2286000D01*
D19*
X+381000Y-1143000D02*
X+254000Y-1270000D01*
X+254000Y-2032000D01*
X+320040Y-2098040D01*
X+320040Y-2286000D01*
X+381000Y-1143000D02*
X+571500Y-1333500D01*
X+1714500Y-1333500D01*
X+1905000Y-1143000D01*
X+1905000Y-1905000D01*
X+320040Y-2286000D02*
X+320040Y-2667000D01*
X+381000Y-1143000D02*
X+381000Y-381000D01*
X+1590040Y-381000D02*
X+1590040Y-190500D01*
X+1968500Y-190500D01*
X+2095500Y-317500D01*
X+2095500Y-2286000D01*
X+1968500Y-2413000D01*
X+1524000Y-2413000D01*
X+1460500Y-2349500D01*
X+1143000Y-1905000D02*
X+1460500Y-2222500D01*
X+1460500Y-2349500D01*
X+1336040Y-2473960D01*
X+1336040Y-2667000D01*
X+1590040Y-381000D02*
X+1397000Y-381000D01*
X+1206500Y-190500D01*
X+825500Y-190500D01*
X+635000Y-381000D01*
X+1143000Y-1905000D02*
X+1143000Y-2667000D01*
D18*
X+889000Y-1905000D02*
X+889000Y-2159000D01*
X+1016000Y-2286000D01*
X+1016000Y-2794000D01*
X+1143000Y-2921000D01*
X+1524000Y-2921000D01*
X+1651000Y-2794000D01*
X+1651000Y-2667000D01*
D10*
X+127000Y+127000D03*
X+2286000Y+127000D03*
X+2286000Y-3048000D03*
X+127000Y-3048000D03*
D70*
X+238895Y-3101340D02*
X+2174105Y-3101340D01*
X+243839Y-3037840D02*
X+2169161Y-3037840D01*
X+218575Y-2974340D02*
X+1097560Y-2974340D01*
X+1569440Y-2974340D02*
X+2194425Y-2974340D01*
X+73660Y-2910840D02*
X+1034060Y-2910840D01*
X+1632940Y-2910840D02*
X+2339340Y-2910840D01*
X+73660Y-2847340D02*
X+145060Y-2847340D01*
X+489940Y-2847340D02*
X+970560Y-2847340D01*
X+1168120Y-2847340D02*
X+1498880Y-2847340D01*
X+1696440Y-2847340D02*
X+2339340Y-2847340D01*
X+73660Y-2783840D02*
X+81560Y-2783840D01*
X+932179Y-2783840D02*
X+946151Y-2783840D01*
X+1440179Y-2783840D02*
X+1546861Y-2783840D01*
X+1755139Y-2783840D02*
X+2339340Y-2783840D01*
X+932179Y-2720340D02*
X+946151Y-2720340D01*
X+1440179Y-2720340D02*
X+1546861Y-2720340D01*
X+1755139Y-2720340D02*
X+2339340Y-2720340D01*
X+932179Y-2656840D02*
X+946151Y-2656840D01*
X+1440179Y-2656840D02*
X+1546861Y-2656840D01*
X+1755139Y-2656840D02*
X+2339340Y-2656840D01*
X+932179Y-2593340D02*
X+946151Y-2593340D01*
X+1440179Y-2593340D02*
X+1546861Y-2593340D01*
X+1755139Y-2593340D02*
X+2339340Y-2593340D01*
X+743940Y-2529840D02*
X+946151Y-2529840D01*
X+1418588Y-2529840D02*
X+2339340Y-2529840D01*
X+807440Y-2466340D02*
X+946151Y-2466340D01*
X+1460400Y-2466340D02*
X+1460600Y-2466340D01*
X+2031900Y-2466340D02*
X+2339340Y-2466340D01*
X+831849Y-2402840D02*
X+946151Y-2402840D01*
X+2095400Y-2402840D02*
X+2339340Y-2402840D01*
X+831849Y-2339340D02*
X+946151Y-2339340D01*
X+2158900Y-2339340D02*
X+2339340Y-2339340D01*
X+831849Y-2275840D02*
X+907060Y-2275840D01*
X+2178049Y-2275840D02*
X+2339340Y-2275840D01*
X+831849Y-2212340D02*
X+843560Y-2212340D01*
X+2178049Y-2212340D02*
X+2339340Y-2212340D01*
X+2178049Y-2148840D02*
X+2339340Y-2148840D01*
X+2178049Y-2085340D02*
X+2339340Y-2085340D01*
X+2178049Y-2021840D02*
X+2339340Y-2021840D01*
X+2178049Y-1958340D02*
X+2339340Y-1958340D01*
X+2178049Y-1894840D02*
X+2339340Y-1894840D01*
X+2178049Y-1831340D02*
X+2339340Y-1831340D01*
X+2178049Y-1767840D02*
X+2339340Y-1767840D01*
X+2178049Y-1704340D02*
X+2339340Y-1704340D01*
X+2178049Y-1640840D02*
X+2339340Y-1640840D01*
X+2178049Y-1577340D02*
X+2339340Y-1577340D01*
X+2178049Y-1513840D02*
X+2339340Y-1513840D01*
X+2178049Y-1450340D02*
X+2339340Y-1450340D01*
X+2178049Y-1386840D02*
X+2339340Y-1386840D01*
X+2178049Y-1323340D02*
X+2339340Y-1323340D01*
X+2178049Y-1259840D02*
X+2339340Y-1259840D01*
X+2178049Y-1196340D02*
X+2339340Y-1196340D01*
X+2178049Y-1132840D02*
X+2339340Y-1132840D01*
X+2178049Y-1069340D02*
X+2339340Y-1069340D01*
X+2178049Y-1005840D02*
X+2339340Y-1005840D01*
X+2178049Y-942340D02*
X+2339340Y-942340D01*
X+2178049Y-878840D02*
X+2339340Y-878840D01*
X+2178049Y-815340D02*
X+2339340Y-815340D01*
X+2178049Y-751840D02*
X+2339340Y-751840D01*
X+2178049Y-688340D02*
X+2339340Y-688340D01*
X+2178049Y-624840D02*
X+2339340Y-624840D01*
X+2178049Y-561340D02*
X+2339340Y-561340D01*
X+2178049Y-497840D02*
X+2339340Y-497840D01*
X+2178049Y-434340D02*
X+2339340Y-434340D01*
X+2178049Y-370840D02*
X+2339340Y-370840D01*
X+2178049Y-307340D02*
X+2339340Y-307340D01*
X+577849Y-243840D02*
X+655420Y-243840D01*
X+1376580Y-243840D02*
X+1507491Y-243840D01*
X+2138580Y-243840D02*
X+2339340Y-243840D01*
X+73660Y-180340D02*
X+101880Y-180340D01*
X+533120Y-180340D02*
X+718920Y-180340D01*
X+1313080Y-180340D02*
X+1507491Y-180340D01*
X+2075080Y-180340D02*
X+2339340Y-180340D01*
X+73660Y-116840D02*
X+782420Y-116840D01*
X+1249580Y-116840D02*
X+1546960Y-116840D01*
X+2011580Y-116840D02*
X+2339340Y-116840D01*
X+73660Y-53340D02*
X+2339340Y-53340D01*
X+73660Y+10160D02*
X+2339340Y+10160D01*
X+238895Y+73660D02*
X+2174105Y+73660D01*
X+243839Y+137160D02*
X+2169161Y+137160D01*
X+238895Y+180340D02*
X+2174105Y+180340D01*
X+73660Y-2936105D02*
X+73660Y-2775940D01*
X+73660Y-208560D02*
X+73660Y+15105D01*
X+137160Y-2931161D02*
X+137160Y-2839440D01*
X+137160Y-145060D02*
X+137160Y+10161D01*
X+200660Y-2956425D02*
X+200660Y-2863849D01*
X+200660Y-120651D02*
X+200660Y+35425D01*
X+264160Y-3101340D02*
X+264160Y-2863849D01*
X+264160Y-120651D02*
X+264160Y+180340D01*
X+327660Y-3101340D02*
X+327660Y-2863849D01*
X+327660Y-120651D02*
X+327660Y+180340D01*
X+391160Y-3101340D02*
X+391160Y-2863849D01*
X+391160Y-120651D02*
X+391160Y+180340D01*
X+454660Y-3101340D02*
X+454660Y-2863849D01*
X+454660Y-120651D02*
X+454660Y+180340D01*
X+518160Y-3101340D02*
X+518160Y-2819120D01*
X+518160Y-165380D02*
X+518160Y+180340D01*
X+581660Y-3101340D02*
X+581660Y-2796539D01*
X+581660Y-251201D02*
X+581660Y+180340D01*
X+645160Y-3101340D02*
X+645160Y-2796539D01*
X+645160Y-251201D02*
X+645160Y+180340D01*
X+708660Y-3101340D02*
X+708660Y-2796539D01*
X+708660Y-190600D02*
X+708660Y+180340D01*
X+772160Y-3101340D02*
X+772160Y-2796539D01*
X+772160Y-2537461D02*
X+772160Y-2501620D01*
X+772160Y-127100D02*
X+772160Y+180340D01*
X+835660Y-3101340D02*
X+835660Y-2796539D01*
X+835660Y-2537461D02*
X+835660Y-2204440D01*
X+835660Y-107951D02*
X+835660Y+180340D01*
X+899160Y-3101340D02*
X+899160Y-2796539D01*
X+899160Y-2537461D02*
X+899160Y-2267940D01*
X+899160Y-107951D02*
X+899160Y+180340D01*
X+962660Y-3101340D02*
X+962660Y-2839440D01*
X+962660Y-107951D02*
X+962660Y+180340D01*
X+1026160Y-3101340D02*
X+1026160Y-2902940D01*
X+1026160Y-107951D02*
X+1026160Y+180340D01*
X+1089660Y-3101340D02*
X+1089660Y-2966440D01*
X+1089660Y-107951D02*
X+1089660Y+180340D01*
X+1153160Y-3101340D02*
X+1153160Y-2990849D01*
X+1153160Y-2832380D02*
X+1153160Y-2796539D01*
X+1153160Y-107951D02*
X+1153160Y+180340D01*
X+1216660Y-3101340D02*
X+1216660Y-2990849D01*
X+1216660Y-2851151D02*
X+1216660Y-2796539D01*
X+1216660Y-107951D02*
X+1216660Y+180340D01*
X+1280160Y-3101340D02*
X+1280160Y-2990849D01*
X+1280160Y-2851151D02*
X+1280160Y-2796539D01*
X+1280160Y-147420D02*
X+1280160Y+180340D01*
X+1343660Y-3101340D02*
X+1343660Y-2990849D01*
X+1343660Y-2851151D02*
X+1343660Y-2796539D01*
X+1343660Y-210920D02*
X+1343660Y+180340D01*
X+1407160Y-3101340D02*
X+1407160Y-2990849D01*
X+1407160Y-2851151D02*
X+1407160Y-2796539D01*
X+1407160Y-274420D02*
X+1407160Y+180340D01*
X+1470660Y-3101340D02*
X+1470660Y-2990849D01*
X+1470660Y-2851151D02*
X+1470660Y-2476400D01*
X+1470660Y-298452D02*
X+1470660Y+180340D01*
X+1534160Y-3101340D02*
X+1534160Y-2990849D01*
X+1534160Y-2812060D02*
X+1534160Y-2495549D01*
X+1534160Y-129640D02*
X+1534160Y+180340D01*
X+1597660Y-3101340D02*
X+1597660Y-2946120D01*
X+1597660Y-2537461D02*
X+1597660Y-2495549D01*
X+1597660Y-107951D02*
X+1597660Y+180340D01*
X+1661160Y-3101340D02*
X+1661160Y-2882620D01*
X+1661160Y-2537461D02*
X+1661160Y-2495549D01*
X+1661160Y-107951D02*
X+1661160Y+180340D01*
X+1724660Y-3101340D02*
X+1724660Y-2796539D01*
X+1724660Y-2537461D02*
X+1724660Y-2495549D01*
X+1724660Y-107951D02*
X+1724660Y+180340D01*
X+1788160Y-3101340D02*
X+1788160Y-2495549D01*
X+1788160Y-107951D02*
X+1788160Y+180340D01*
X+1851660Y-3101340D02*
X+1851660Y-2495549D01*
X+1851660Y-107951D02*
X+1851660Y+180340D01*
X+1915160Y-3101340D02*
X+1915160Y-2495549D01*
X+1915160Y-107951D02*
X+1915160Y+180340D01*
X+1978660Y-3101340D02*
X+1978660Y-2495549D01*
X+1978660Y-107951D02*
X+1978660Y+180340D01*
X+2042160Y-3101340D02*
X+2042160Y-2456080D01*
X+2042160Y-147420D02*
X+2042160Y+180340D01*
X+2105660Y-3101340D02*
X+2105660Y-2392580D01*
X+2105660Y-210920D02*
X+2105660Y+180340D01*
X+2169160Y-3101340D02*
X+2169160Y-2329080D01*
X+2169160Y-274420D02*
X+2169160Y+180340D01*
X+2232660Y-2936105D02*
X+2232660Y+15105D01*
X+2296160Y-2931161D02*
X+2296160Y+10161D01*
X+2339340Y-2936105D02*
X+2339340Y+15105D01*
X+2169161Y+175396D02*
X+2169161Y+78604D01*
X+2237604Y+10161D01*
X+2334396Y+10161D01*
X+2339340Y+15105D01*
X+2339340Y-2936105D01*
X+2334396Y-2931161D01*
X+2237604Y-2931161D01*
X+2169161Y-2999604D01*
X+2169161Y-3096396D01*
X+2174105Y-3101340D01*
X+238895Y-3101340D01*
X+243839Y-3096396D01*
X+243839Y-2999604D01*
X+175396Y-2931161D01*
X+78604Y-2931161D01*
X+73660Y-2936105D01*
X+73660Y-2775940D01*
X+161569Y-2863849D01*
X+473431Y-2863849D01*
X+540741Y-2796539D01*
X+932179Y-2796539D01*
X+932179Y-2537461D01*
X+736319Y-2537461D01*
X+831849Y-2441931D01*
X+831849Y-2200629D01*
X+946151Y-2314931D01*
X+946151Y-2822931D01*
X+1114069Y-2990849D01*
X+1552931Y-2990849D01*
X+1720849Y-2822931D01*
X+1720849Y-2796539D01*
X+1755139Y-2796539D01*
X+1755139Y-2537461D01*
X+1546861Y-2537461D01*
X+1546861Y-2796539D01*
X+1549681Y-2796539D01*
X+1495069Y-2851151D01*
X+1171931Y-2851151D01*
X+1117319Y-2796539D01*
X+1440179Y-2796539D01*
X+1440179Y-2537461D01*
X+1418588Y-2537461D01*
X+1418588Y-2508152D01*
X+1460500Y-2466240D01*
X+1489809Y-2495549D01*
X+2002691Y-2495549D01*
X+2178049Y-2320191D01*
X+2178049Y-283309D01*
X+2002691Y-107951D01*
X+1555849Y-107951D01*
X+1507491Y-156309D01*
X+1507491Y-251461D01*
X+1485901Y-251461D01*
X+1485901Y-298452D01*
X+1431192Y-298452D01*
X+1240691Y-107951D01*
X+791309Y-107951D01*
X+648059Y-251201D01*
X+581235Y-251201D01*
X+577849Y-254587D01*
X+577849Y-225069D01*
X+473431Y-120651D01*
X+161569Y-120651D01*
X+73660Y-208560D01*
X+73660Y+15105D01*
X+78604Y+10161D01*
X+175396Y+10161D01*
X+243839Y+78604D01*
X+243839Y+175396D01*
X+238895Y+180340D01*
X+2174105Y+180340D01*
X+2169161Y+175396D01*
X+692284Y-1250951D02*
X+831716Y-1250951D01*
X+946284Y-1250951D02*
X+1085716Y-1250951D01*
X+1200284Y-1250951D02*
X+1680309Y-1250951D01*
X+751839Y-1187451D02*
X+772161Y-1187451D01*
X+1005839Y-1187451D02*
X+1026161Y-1187451D01*
X+1259839Y-1187451D02*
X+1743809Y-1187451D01*
X+497839Y-1123951D02*
X+518161Y-1123951D01*
X+751839Y-1123951D02*
X+772161Y-1123951D01*
X+1005839Y-1123951D02*
X+1026161Y-1123951D01*
X+1259839Y-1123951D02*
X+1771701Y-1123951D01*
X+463686Y-1060451D02*
X+552314Y-1060451D01*
X+717686Y-1060451D02*
X+806314Y-1060451D01*
X+971686Y-1060451D02*
X+1060314Y-1060451D01*
X+1225686Y-1060451D02*
X+1771701Y-1060451D01*
X+463549Y-996951D02*
X+1824438Y-996951D01*
X+463549Y-933451D02*
X+1771701Y-933451D01*
X+463549Y-869951D02*
X+1771701Y-869951D01*
X+463549Y-806451D02*
X+1799036Y-806451D01*
X+463549Y-742951D02*
X+1835151Y-742951D01*
X+463549Y-679451D02*
X+1835151Y-679451D01*
X+463549Y-615951D02*
X+517171Y-615951D01*
X+752829Y-615951D02*
X+1835151Y-615951D01*
X+816329Y-552451D02*
X+1835151Y-552451D01*
X+964613Y-488951D02*
X+1485901Y-488951D01*
X+1694179Y-488951D02*
X+1800861Y-488951D01*
X+1018799Y-425451D02*
X+1324711Y-425451D01*
X+1694179Y-425451D02*
X+1800861Y-425451D01*
X+1018799Y-361951D02*
X+1261211Y-361951D01*
X+1694179Y-361951D02*
X+1800861Y-361951D01*
X+990015Y-298451D02*
X+1197711Y-298451D01*
X+1694179Y-298451D02*
X+1800861Y-298451D01*
X+964613Y-273049D02*
X+1172309Y-273049D01*
X+1694179Y-273049D02*
X+1800861Y-273049D01*
X+463549Y-1060314D02*
X+463549Y-562329D01*
X+527049Y-1085716D02*
X+527049Y-625829D01*
X+590549Y-1026161D02*
X+590549Y-641349D01*
X+654049Y-1026161D02*
X+654049Y-641349D01*
X+717549Y-1250951D02*
X+717549Y-1225686D01*
X+717549Y-1060314D02*
X+717549Y-641349D01*
X+781049Y-1250951D02*
X+781049Y-1200284D01*
X+781049Y-1085716D02*
X+781049Y-587731D01*
X+844549Y-1026161D02*
X+844549Y-524231D01*
X+908049Y-1026161D02*
X+908049Y-510799D01*
X+971549Y-1250951D02*
X+971549Y-1225686D01*
X+971549Y-1060314D02*
X+971549Y-482015D01*
X+971549Y-279985D02*
X+971549Y-273049D01*
X+1035049Y-1250951D02*
X+1035049Y-1200284D01*
X+1035049Y-1085716D02*
X+1035049Y-273049D01*
X+1098549Y-1026161D02*
X+1098549Y-273049D01*
X+1162049Y-1026161D02*
X+1162049Y-273049D01*
X+1225549Y-1250951D02*
X+1225549Y-1225686D01*
X+1225549Y-1060314D02*
X+1225549Y-326289D01*
X+1289049Y-1250951D02*
X+1289049Y-389789D01*
X+1352549Y-1250951D02*
X+1352549Y-453289D01*
X+1416049Y-1250951D02*
X+1416049Y-463548D01*
X+1479549Y-1250951D02*
X+1479549Y-463548D01*
X+1543049Y-1250951D02*
X+1543049Y-510539D01*
X+1606549Y-1250951D02*
X+1606549Y-510539D01*
X+1670049Y-1250951D02*
X+1670049Y-510539D01*
X+1733549Y-1197711D02*
X+1733549Y-273049D01*
X+1797049Y-1009701D02*
X+1797049Y-969562D01*
X+1797049Y-808438D02*
X+1797049Y-273049D01*
X+1837188Y-1009701D02*
X+1837188Y-1009701D01*
X+1800861Y-510539D02*
X+1835151Y-510539D01*
X+1835151Y-770336D01*
X+1771701Y-833786D01*
X+1771701Y-944214D01*
X+1837188Y-1009701D01*
X+1771701Y-1009701D01*
X+1771701Y-1159559D01*
X+1680309Y-1250951D01*
X+1200284Y-1250951D01*
X+1259839Y-1191396D01*
X+1259839Y-1094604D01*
X+1191396Y-1026161D01*
X+1094604Y-1026161D01*
X+1026161Y-1094604D01*
X+1026161Y-1191396D01*
X+1085716Y-1250951D01*
X+946284Y-1250951D01*
X+1005839Y-1191396D01*
X+1005839Y-1094604D01*
X+937396Y-1026161D01*
X+840604Y-1026161D01*
X+772161Y-1094604D01*
X+772161Y-1191396D01*
X+831716Y-1250951D01*
X+692284Y-1250951D01*
X+751839Y-1191396D01*
X+751839Y-1094604D01*
X+683396Y-1026161D01*
X+586604Y-1026161D01*
X+518161Y-1094604D01*
X+518161Y-1163421D01*
X+497839Y-1143099D01*
X+497839Y-1094604D01*
X+463549Y-1060314D01*
X+463549Y-562329D01*
X+542569Y-641349D01*
X+727431Y-641349D01*
X+857981Y-510799D01*
X+942765Y-510799D01*
X+1018799Y-434765D01*
X+1018799Y-327235D01*
X+964613Y-273049D01*
X+1172309Y-273049D01*
X+1362808Y-463548D01*
X+1485901Y-463548D01*
X+1485901Y-510539D01*
X+1694179Y-510539D01*
X+1694179Y-273049D01*
X+1800861Y-273049D01*
X+1800861Y-510539D01*
X+2012951Y-808438D02*
X+2012951Y-808438D01*
X+1974849Y-744938D02*
X+2012951Y-744938D01*
X+1974849Y-681438D02*
X+2012951Y-681438D01*
X+1974849Y-617938D02*
X+2012951Y-617938D01*
X+1974849Y-554438D02*
X+2012951Y-554438D01*
X+2009139Y-490938D02*
X+2012951Y-490938D01*
X+2009139Y-427438D02*
X+2012951Y-427438D01*
X+2009139Y-363938D02*
X+2012951Y-363938D01*
X+2009139Y-347879D02*
X+2009139Y-347879D01*
X+1974849Y-770336D02*
X+1974849Y-510539D01*
X+2012951Y-808438D02*
X+2012951Y-351691D01*
X+2012951Y-808438D01*
X+1974849Y-770336D01*
X+1974849Y-510539D01*
X+2009139Y-510539D01*
X+2009139Y-347879D01*
X+2012951Y-351691D01*
X+1972812Y-1009701D02*
X+2012951Y-1009701D01*
X+2012951Y-969562D02*
X+2012951Y-969562D01*
X+1972812Y-1009701D02*
X+1972812Y-1009701D01*
X+2012951Y-1009701D02*
X+2012951Y-969562D01*
X+2012951Y-1009701D02*
X+1972812Y-1009701D01*
X+2012951Y-969562D01*
X+2012951Y-1009701D01*
X+196849Y-1210411D02*
X+196849Y-1210411D01*
X+196849Y-1146911D02*
X+260349Y-1146911D01*
X+196849Y-1083411D02*
X+275354Y-1083411D01*
X+196849Y-1019911D02*
X+298451Y-1019911D01*
X+196849Y-956411D02*
X+298451Y-956411D01*
X+196849Y-892911D02*
X+298451Y-892911D01*
X+196849Y-829411D02*
X+298451Y-829411D01*
X+196849Y-765911D02*
X+298451Y-765911D01*
X+196849Y-702411D02*
X+298451Y-702411D01*
X+196849Y-638911D02*
X+298451Y-638911D01*
X+196849Y-575411D02*
X+298451Y-575411D01*
X+196849Y-511911D02*
X+298451Y-511911D01*
X+196849Y-448411D02*
X+251201Y-448411D01*
X+196849Y-384911D02*
X+251201Y-384911D01*
X+196849Y-321411D02*
X+251201Y-321411D01*
X+219431Y-260349D02*
X+251201Y-260349D01*
X+196849Y-1210411D02*
X+196849Y-282931D01*
X+260349Y-1146911D02*
X+260349Y-510799D01*
X+298451Y-1060314D02*
X+298451Y-510799D01*
X+251201Y-510799D02*
X+298451Y-510799D01*
X+298451Y-1060314D01*
X+264161Y-1094604D01*
X+264161Y-1143099D01*
X+196849Y-1210411D01*
X+196849Y-282931D01*
X+219431Y-260349D01*
X+251201Y-260349D01*
X+251201Y-510799D01*
X+1987549Y-1771701D02*
X+2012951Y-1771701D01*
X+1987549Y-1708201D02*
X+2012951Y-1708201D01*
X+1987549Y-1644701D02*
X+2012951Y-1644701D01*
X+1987549Y-1581201D02*
X+2012951Y-1581201D01*
X+1987549Y-1517701D02*
X+2012951Y-1517701D01*
X+1987549Y-1454201D02*
X+2012951Y-1454201D01*
X+1987549Y-1390701D02*
X+2012951Y-1390701D01*
X+1987549Y-1327201D02*
X+2012951Y-1327201D01*
X+1987549Y-1276299D02*
X+2012951Y-1276299D01*
X+1987549Y-1771701D02*
X+1987549Y-1276299D01*
X+2012951Y-1771701D02*
X+2012951Y-1276299D01*
X+2012951Y-1771701D02*
X+1987549Y-1771701D01*
X+1987549Y-1276299D01*
X+2012951Y-1276299D01*
X+2012951Y-1771701D01*
X+819151Y-2117371D02*
X+819151Y-2117371D01*
X+755651Y-2053871D02*
X+819151Y-2053871D01*
X+714864Y-1990371D02*
X+809136Y-1990371D01*
X+501651Y-1926871D02*
X+518161Y-1926871D01*
X+751839Y-1926871D02*
X+772161Y-1926871D01*
X+1771651Y-1926871D02*
X+1771701Y-1926871D01*
X+497839Y-1863371D02*
X+518161Y-1863371D01*
X+751839Y-1863371D02*
X+772161Y-1863371D01*
X+1708151Y-1863371D02*
X+1771701Y-1863371D01*
X+497839Y-1799871D02*
X+574894Y-1799871D01*
X+695106Y-1799871D02*
X+828894Y-1799871D01*
X+1644651Y-1799871D02*
X+1771701Y-1799871D01*
X+336549Y-1736371D02*
X+958849Y-1736371D01*
X+1581151Y-1736371D02*
X+1822451Y-1736371D01*
X+336549Y-1672871D02*
X+1022349Y-1672871D01*
X+1517651Y-1672871D02*
X+1822451Y-1672871D01*
X+336549Y-1609371D02*
X+1822451Y-1609371D01*
X+336549Y-1545871D02*
X+1822451Y-1545871D01*
X+336549Y-1482371D02*
X+1822451Y-1482371D01*
X+336549Y-1418871D02*
X+1822451Y-1418871D01*
X+336549Y-1355371D02*
X+476631Y-1355371D01*
X+1809369Y-1355371D02*
X+1822451Y-1355371D01*
X+348869Y-1291871D02*
X+413131Y-1291871D01*
X+380901Y-1259839D02*
X+381099Y-1259839D01*
X+336549Y-1788161D02*
X+336549Y-1304191D01*
X+400049Y-1788161D02*
X+400049Y-1278789D01*
X+463549Y-1788161D02*
X+463549Y-1342289D01*
X+527049Y-1847716D02*
X+527049Y-1405789D01*
X+590549Y-1788161D02*
X+590549Y-1416049D01*
X+654049Y-1788161D02*
X+654049Y-1416049D01*
X+717549Y-2015769D02*
X+717549Y-1987686D01*
X+717549Y-1822314D02*
X+717549Y-1416049D01*
X+781049Y-2079269D02*
X+781049Y-1962284D01*
X+781049Y-1847716D02*
X+781049Y-1416049D01*
X+844549Y-1788161D02*
X+844549Y-1416049D01*
X+908049Y-1787171D02*
X+908049Y-1416049D01*
X+971549Y-1723671D02*
X+971549Y-1416049D01*
X+1035049Y-1660171D02*
X+1035049Y-1416049D01*
X+1098549Y-1644651D02*
X+1098549Y-1416049D01*
X+1162049Y-1644651D02*
X+1162049Y-1416049D01*
X+1225549Y-1644651D02*
X+1225549Y-1416049D01*
X+1289049Y-1644651D02*
X+1289049Y-1416049D01*
X+1352549Y-1644651D02*
X+1352549Y-1416049D01*
X+1416049Y-1644651D02*
X+1416049Y-1416049D01*
X+1479549Y-1644651D02*
X+1479549Y-1416049D01*
X+1543049Y-1698269D02*
X+1543049Y-1416049D01*
X+1606549Y-1761769D02*
X+1606549Y-1416049D01*
X+1670049Y-1825269D02*
X+1670049Y-1416049D01*
X+1733549Y-1888769D02*
X+1733549Y-1416049D01*
X+1797049Y-1771701D02*
X+1797049Y-1367691D01*
X+1822451Y-1771701D02*
X+1822451Y-1342289D01*
X+513130Y-1391870D02*
X+537309Y-1416049D01*
X+1748691Y-1416049D01*
X+1822451Y-1342289D01*
X+1822451Y-1771701D01*
X+1771701Y-1771701D01*
X+1771701Y-1926921D01*
X+1489431Y-1644651D01*
X+1050569Y-1644651D01*
X+907059Y-1788161D01*
X+840604Y-1788161D01*
X+772161Y-1856604D01*
X+772161Y-1953396D01*
X+819151Y-2000386D01*
X+819151Y-2117371D01*
X+704849Y-2003069D01*
X+704849Y-2000386D01*
X+751839Y-1953396D01*
X+751839Y-1856604D01*
X+683396Y-1788161D01*
X+586604Y-1788161D01*
X+518161Y-1856604D01*
X+518161Y-1943381D01*
X+497839Y-1923059D01*
X+497839Y-1788161D01*
X+336549Y-1788161D01*
X+336549Y-1304191D01*
X+380901Y-1259839D01*
X+381099Y-1259839D01*
X+513130Y-1391870D01*
X+2012951Y-2078438D02*
X+2012951Y-2078438D01*
X+1972812Y-2038299D02*
X+2012951Y-2038299D01*
X+1972812Y-2038299D02*
X+1972812Y-2038299D01*
X+2012951Y-2078438D02*
X+2012951Y-2038299D01*
X+2012951Y-2078438D02*
X+1972812Y-2038299D01*
X+2012951Y-2038299D01*
X+2012951Y-2078438D01*
X+577849Y-2156461D02*
X+660681Y-2156461D01*
X+577849Y-2092961D02*
X+597181Y-2092961D01*
X+577849Y-2073629D02*
X+577849Y-2073629D01*
X+577849Y-2156461D02*
X+577849Y-2073629D01*
X+641349Y-2156461D02*
X+641349Y-2137129D01*
X+660681Y-2156461D02*
X+660681Y-2156461D01*
X+577849Y-2156461D01*
X+577849Y-2073629D01*
X+660681Y-2156461D01*
X+1060451Y-2231671D02*
X+1060451Y-2231671D01*
X+996951Y-2168171D02*
X+1060451Y-2168171D01*
X+958849Y-2104671D02*
X+1060451Y-2104671D01*
X+958849Y-2041171D02*
X+1060451Y-2041171D01*
X+981564Y-1977671D02*
X+1050436Y-1977671D01*
X+1005839Y-1914171D02*
X+1026161Y-1914171D01*
X+1026161Y-1866619D02*
X+1026161Y-1866619D01*
X+958849Y-2130069D02*
X+958849Y-2000386D01*
X+1022349Y-2193569D02*
X+1022349Y-1870431D01*
X+1060451Y-2231671D02*
X+1060451Y-1987686D01*
X+1026161Y-1953396D02*
X+1060451Y-1987686D01*
X+1060451Y-2231671D01*
X+958849Y-2130069D01*
X+958849Y-2000386D01*
X+1005839Y-1953396D01*
X+1005839Y-1886941D01*
X+1026161Y-1866619D01*
X+1026161Y-1953396D01*
X+1558191Y-2330451D02*
X+1934309Y-2330451D01*
X+1543049Y-2266951D02*
X+1824438Y-2266951D01*
X+1985562Y-2266951D02*
X+1997809Y-2266951D01*
X+1543049Y-2203451D02*
X+1771701Y-2203451D01*
X+1494691Y-2139951D02*
X+1771701Y-2139951D01*
X+1431191Y-2076451D02*
X+1723671Y-2076451D01*
X+1367691Y-2012951D02*
X+1660171Y-2012951D01*
X+1304191Y-1949451D02*
X+1596671Y-1949451D01*
X+1259839Y-1885951D02*
X+1533171Y-1885951D01*
X+1225686Y-1822451D02*
X+1469671Y-1822451D01*
X+1108431Y-1784349D02*
X+1431569Y-1784349D01*
X+1104619Y-1788161D02*
X+1104619Y-1788161D01*
X+1168119Y-1788161D02*
X+1168119Y-1784349D01*
X+1231619Y-1828384D02*
X+1231619Y-1784349D01*
X+1295119Y-1940379D02*
X+1295119Y-1784349D01*
X+1358619Y-2003879D02*
X+1358619Y-1784349D01*
X+1422119Y-2067379D02*
X+1422119Y-1784349D01*
X+1485619Y-2130879D02*
X+1485619Y-1838399D01*
X+1549119Y-2321379D02*
X+1549119Y-1901899D01*
X+1612619Y-2330451D02*
X+1612619Y-1965399D01*
X+1676119Y-2330451D02*
X+1676119Y-2028899D01*
X+1739619Y-2330451D02*
X+1739619Y-2092399D01*
X+1803119Y-2330451D02*
X+1803119Y-2245632D01*
X+1866619Y-2330451D02*
X+1866619Y-2292299D01*
X+1930119Y-2330451D02*
X+1930119Y-2292299D01*
X+1993619Y-2271141D02*
X+1993619Y-2258894D01*
X+2012951Y-2251809D02*
X+2012951Y-2239562D01*
X+1771701Y-2124481D02*
X+1771701Y-2214214D01*
X+1849786Y-2292299D01*
X+1960214Y-2292299D01*
X+2012951Y-2239562D01*
X+2012951Y-2251809D01*
X+1934309Y-2330451D01*
X+1558191Y-2330451D01*
X+1543049Y-2315309D01*
X+1543049Y-2188309D01*
X+1259839Y-1905099D01*
X+1259839Y-1856604D01*
X+1191396Y-1788161D01*
X+1104619Y-1788161D01*
X+1108431Y-1784349D01*
X+1431569Y-1784349D01*
X+1771701Y-2124481D01*
X+1225549Y-2537461D02*
X+1253492Y-2537461D01*
X+1225549Y-2473961D02*
X+1253492Y-2473961D01*
X+1225549Y-2410461D02*
X+1282799Y-2410461D01*
X+1225549Y-2346961D02*
X+1346299Y-2346961D01*
X+1225549Y-2283461D02*
X+1377951Y-2283461D01*
X+1225549Y-2219961D02*
X+1341221Y-2219961D01*
X+1225549Y-2156461D02*
X+1277721Y-2156461D01*
X+1225549Y-2104289D02*
X+1225549Y-2104289D01*
X+1225549Y-2537461D02*
X+1225549Y-2104289D01*
X+1289049Y-2404211D02*
X+1289049Y-2167789D01*
X+1352549Y-2340711D02*
X+1352549Y-2231289D01*
X+1377951Y-2315309D02*
X+1377951Y-2256691D01*
X+1377951Y-2315309D01*
X+1253492Y-2439768D01*
X+1253492Y-2537461D01*
X+1225549Y-2537461D01*
X+1225549Y-2104289D01*
X+1377951Y-2256691D01*
X+424179Y-2715541D02*
X+424179Y-2715541D01*
X+424179Y-2652041D02*
X+438151Y-2652041D01*
X+424179Y-2588541D02*
X+438151Y-2588541D01*
X+402589Y-2525041D02*
X+438151Y-2525041D01*
X+402589Y-2461541D02*
X+438151Y-2461541D01*
X+424179Y-2398041D02*
X+457761Y-2398041D01*
X+424179Y-2334541D02*
X+438151Y-2334541D01*
X+424179Y-2271041D02*
X+438151Y-2271041D01*
X+424179Y-2207541D02*
X+438151Y-2207541D01*
X+402589Y-2144041D02*
X+438151Y-2144041D01*
X+402589Y-2080541D02*
X+438151Y-2080541D01*
X+360579Y-2021839D02*
X+399059Y-2021839D01*
X+360579Y-2021839D02*
X+360579Y-2021839D01*
X+424079Y-2537461D02*
X+424079Y-2415539D01*
X+424079Y-2156461D02*
X+424079Y-2046859D01*
X+472720Y-2413000D02*
X+472720Y-2413000D01*
X+438151Y-2060931D02*
X+438151Y-2378431D01*
X+472720Y-2413000D01*
X+438151Y-2447569D01*
X+438151Y-2701569D01*
X+424179Y-2715541D01*
X+424179Y-2537461D01*
X+402589Y-2537461D01*
X+402589Y-2415539D01*
X+424179Y-2415539D01*
X+424179Y-2156461D01*
X+402589Y-2156461D01*
X+402589Y-2063849D01*
X+360579Y-2021839D01*
X+399059Y-2021839D01*
X+438151Y-2060931D01*
X+215901Y-2720621D02*
X+215901Y-2720621D01*
X+196849Y-2657121D02*
X+215901Y-2657121D01*
X+196849Y-2593621D02*
X+215901Y-2593621D01*
X+196849Y-2530121D02*
X+237491Y-2530121D01*
X+196849Y-2466621D02*
X+237491Y-2466621D01*
X+196849Y-2403121D02*
X+215901Y-2403121D01*
X+196849Y-2339621D02*
X+215901Y-2339621D01*
X+196849Y-2276121D02*
X+215901Y-2276121D01*
X+196849Y-2212621D02*
X+215901Y-2212621D01*
X+196849Y-2149121D02*
X+237491Y-2149121D01*
X+196849Y-2091589D02*
X+196849Y-2091589D01*
X+196849Y-2701569D02*
X+196849Y-2091589D01*
X+237491Y-2537461D02*
X+237491Y-2415539D01*
X+237491Y-2156461D02*
X+237491Y-2132231D01*
X+237491Y-2156461D01*
X+215901Y-2156461D01*
X+215901Y-2415539D01*
X+237491Y-2415539D01*
X+237491Y-2537461D01*
X+215901Y-2537461D01*
X+215901Y-2720621D01*
X+196849Y-2701569D01*
X+196849Y-2091589D01*
X+237491Y-2132231D01*
D11*
X+381000Y-1905000D03*
D12*
X+635000Y-1905000D03*
X+889000Y-1905000D03*
X+1143000Y-1905000D03*
X+1143000Y-1143000D03*
X+889000Y-1143000D03*
X+635000Y-1143000D03*
X+381000Y-1143000D03*
D13*
X+1905000Y-1143000D03*
D14*
X+1905000Y-889000D03*
D13*
X+1905000Y-1905000D03*
D14*
X+1905000Y-2159000D03*
D71*
X+1905000Y-381000D03*
X+1590040Y-381000D03*
X+320040Y-2667000D03*
X+635000Y-2667000D03*
X+828040Y-2667000D03*
X+1143000Y-2667000D03*
X+1651000Y-2667000D03*
X+1336040Y-2667000D03*
X+635000Y-2286000D03*
X+320040Y-2286000D03*
D15*
X+381000Y-381000D03*
D16*
X+635000Y-381000D03*
X+889000Y-381000D03*
D17*
X+0Y-3175000D02*
X+2413000Y-3175000D01*
X+2413000Y+254000D01*
X+0Y+254000D01*
X+0Y-3175000D01*
M02*
