G04 PROTEUS GERBER X2 FILE*
%TF.GenerationSoftware,Labcenter,Proteus,8.9-SP0-Build27865*%
%TF.CreationDate,2020-10-08T22:41:29+00:00*%
%TF.FileFunction,Legend,Bot*%
%TF.FilePolarity,Positive*%
%TF.Part,Single*%
%TF.SameCoordinates,{0b1cd8f1-c089-4694-997e-405263033d43}*%
%FSLAX45Y45*%
%MOMM*%
G01*
%TA.AperFunction,Profile*%
%ADD17C,0.203200*%
%TA.AperFunction,Material*%
%ADD20C,0.203200*%
%TD.AperFunction*%
D17*
X+0Y-3175000D02*
X+2413000Y-3175000D01*
X+2413000Y+254000D01*
X+0Y+254000D01*
X+0Y-3175000D01*
D20*
X+1821180Y-307340D02*
X+1668780Y-307340D01*
X+1818640Y-454660D02*
X+1668780Y-454660D01*
X+1874520Y-266700D02*
X+1874520Y-175260D01*
X+1795145Y-175260D01*
X+1779270Y-190500D01*
X+1779270Y-205740D01*
X+1795145Y-220980D01*
X+1874520Y-220980D01*
X+1795145Y-220980D02*
X+1779270Y-236220D01*
X+1779270Y-266700D01*
X+1731645Y-190500D02*
X+1715770Y-175260D01*
X+1668145Y-175260D01*
X+1652270Y-190500D01*
X+1652270Y-205740D01*
X+1668145Y-220980D01*
X+1652270Y-236220D01*
X+1652270Y-251460D01*
X+1668145Y-266700D01*
X+1715770Y-266700D01*
X+1731645Y-251460D01*
X+1699895Y-220980D02*
X+1668145Y-220980D01*
X+403860Y-2740660D02*
X+556260Y-2740660D01*
X+406400Y-2593340D02*
X+556260Y-2593340D01*
X+604520Y-2491740D02*
X+604520Y-2400300D01*
X+525145Y-2400300D01*
X+509270Y-2415540D01*
X+509270Y-2430780D01*
X+525145Y-2446020D01*
X+604520Y-2446020D01*
X+525145Y-2446020D02*
X+509270Y-2461260D01*
X+509270Y-2491740D01*
X+445770Y-2430780D02*
X+414020Y-2400300D01*
X+414020Y-2491740D01*
X+911860Y-2740660D02*
X+1064260Y-2740660D01*
X+914400Y-2593340D02*
X+1064260Y-2593340D01*
X+1112520Y-2491740D02*
X+1112520Y-2400300D01*
X+1033145Y-2400300D01*
X+1017270Y-2415540D01*
X+1017270Y-2430780D01*
X+1033145Y-2446020D01*
X+1112520Y-2446020D01*
X+1033145Y-2446020D02*
X+1017270Y-2461260D01*
X+1017270Y-2491740D01*
X+969645Y-2415540D02*
X+953770Y-2400300D01*
X+906145Y-2400300D01*
X+890270Y-2415540D01*
X+890270Y-2430780D01*
X+906145Y-2446020D01*
X+953770Y-2446020D01*
X+969645Y-2461260D01*
X+969645Y-2491740D01*
X+890270Y-2491740D01*
X+1567180Y-2593340D02*
X+1414780Y-2593340D01*
X+1564640Y-2740660D02*
X+1414780Y-2740660D01*
X+1620520Y-2552700D02*
X+1620520Y-2461260D01*
X+1541145Y-2461260D01*
X+1525270Y-2476500D01*
X+1525270Y-2491740D01*
X+1541145Y-2506980D01*
X+1620520Y-2506980D01*
X+1541145Y-2506980D02*
X+1525270Y-2522220D01*
X+1525270Y-2552700D01*
X+1398270Y-2522220D02*
X+1493520Y-2522220D01*
X+1430020Y-2461260D01*
X+1430020Y-2552700D01*
X+551180Y-2212340D02*
X+398780Y-2212340D01*
X+548640Y-2359660D02*
X+398780Y-2359660D01*
X+604520Y-2171700D02*
X+604520Y-2080260D01*
X+525145Y-2080260D01*
X+509270Y-2095500D01*
X+509270Y-2110740D01*
X+525145Y-2125980D01*
X+604520Y-2125980D01*
X+525145Y-2125980D02*
X+509270Y-2141220D01*
X+509270Y-2171700D01*
X+382270Y-2080260D02*
X+461645Y-2080260D01*
X+461645Y-2110740D01*
X+398145Y-2110740D01*
X+382270Y-2125980D01*
X+382270Y-2156460D01*
X+398145Y-2171700D01*
X+445770Y-2171700D01*
X+461645Y-2156460D01*
M02*
