G04 PROTEUS GERBER X2 FILE*
%TF.GenerationSoftware,Labcenter,Proteus,8.9-SP0-Build27865*%
%TF.CreationDate,2020-10-08T22:41:29+00:00*%
%TF.FileFunction,Legend,Top*%
%TF.FilePolarity,Positive*%
%TF.Part,Single*%
%TF.SameCoordinates,{0b1cd8f1-c089-4694-997e-405263033d43}*%
%FSLAX45Y45*%
%MOMM*%
G01*
%TA.AperFunction,Material*%
%ADD20C,0.203200*%
%TA.AperFunction,Profile*%
%ADD17C,0.203200*%
%TA.AperFunction,Material*%
%ADD21C,0.200000*%
%TD.AperFunction*%
D20*
X+254000Y-1397000D02*
X+254000Y-1270000D01*
X+1270000Y-1270000D01*
X+1270000Y-1778000D01*
X+254000Y-1778000D01*
X+254000Y-1651000D01*
X+381000Y-1524000D02*
X+378564Y-1498124D01*
X+371515Y-1474152D01*
X+360238Y-1452562D01*
X+345122Y-1433830D01*
X+326554Y-1418431D01*
X+304919Y-1406842D01*
X+280606Y-1399540D01*
X+254000Y-1397000D01*
X+381000Y-1524000D02*
X+378564Y-1550606D01*
X+371515Y-1574919D01*
X+360238Y-1596554D01*
X+345122Y-1615122D01*
X+326554Y-1630238D01*
X+304919Y-1641515D01*
X+280606Y-1648564D01*
X+254000Y-1651000D01*
X+121920Y-1651000D02*
X+198120Y-1651000D01*
X+213360Y-1635125D01*
X+213360Y-1571625D01*
X+198120Y-1555750D01*
X+121920Y-1555750D01*
X+137160Y-1508125D02*
X+121920Y-1492250D01*
X+121920Y-1444625D01*
X+137160Y-1428750D01*
X+152400Y-1428750D01*
X+167640Y-1444625D01*
X+167640Y-1492250D01*
X+182880Y-1508125D01*
X+213360Y-1508125D01*
X+213360Y-1428750D01*
D17*
X+0Y-3175000D02*
X+2413000Y-3175000D01*
X+2413000Y+254000D01*
X+0Y+254000D01*
X+0Y-3175000D01*
D21*
X+1615000Y-1143000D02*
X+1615000Y-762000D01*
X+2195000Y-762000D01*
X+2195000Y-1270000D01*
X+1905000Y-1270000D01*
D20*
X+2296440Y-1143000D02*
X+2311680Y-1143000D01*
X+2326920Y-1127125D01*
X+2326920Y-1063625D01*
X+2311680Y-1047750D01*
X+2235480Y-1047750D01*
X+2265960Y-984250D02*
X+2235480Y-952500D01*
X+2326920Y-952500D01*
D21*
X+2195000Y-1905000D02*
X+2195000Y-2286000D01*
X+1615000Y-2286000D01*
X+1615000Y-1778000D01*
X+1905000Y-1778000D01*
D20*
X+1544040Y-2159000D02*
X+1559280Y-2159000D01*
X+1574520Y-2143125D01*
X+1574520Y-2079625D01*
X+1559280Y-2063750D01*
X+1483080Y-2063750D01*
X+1498320Y-2016125D02*
X+1483080Y-2000250D01*
X+1483080Y-1952625D01*
X+1498320Y-1936750D01*
X+1513560Y-1936750D01*
X+1528800Y-1952625D01*
X+1528800Y-2000250D01*
X+1544040Y-2016125D01*
X+1574520Y-2016125D01*
X+1574520Y-1936750D01*
D21*
X+261000Y-381000D02*
X+261000Y-698500D01*
X+1009000Y-698500D01*
X+1009000Y-63500D01*
X+381000Y-63500D01*
D20*
X+508000Y+7460D02*
X+508000Y-7780D01*
X+523875Y-23020D01*
X+587375Y-23020D01*
X+603250Y-7780D01*
X+603250Y+68420D01*
X+650875Y+53180D02*
X+666750Y+68420D01*
X+714375Y+68420D01*
X+730250Y+53180D01*
X+730250Y+37940D01*
X+714375Y+22700D01*
X+730250Y+7460D01*
X+730250Y-7780D01*
X+714375Y-23020D01*
X+666750Y-23020D01*
X+650875Y-7780D01*
X+682625Y+22700D02*
X+714375Y+22700D01*
M02*
