G04 PROTEUS GERBER X2 FILE*
%TF.GenerationSoftware,Labcenter,Proteus,8.9-SP0-Build27865*%
%TF.CreationDate,2020-10-08T22:41:29+00:00*%
%TF.FileFunction,AssemblyDrawing,Top*%
%TF.FilePolarity,Positive*%
%TF.Part,Single*%
%TF.SameCoordinates,{0b1cd8f1-c089-4694-997e-405263033d43}*%
%FSLAX45Y45*%
%MOMM*%
G01*
%TA.AperFunction,Material*%
%ADD20C,0.203200*%
%ADD72C,0.508000*%
%ADD73C,0.345440*%
%TA.AperFunction,Profile*%
%ADD17C,0.203200*%
%TA.AperFunction,Material*%
%ADD30C,0.050000*%
%ADD31C,0.660000*%
%ADD32C,0.211660*%
%ADD33C,0.632000*%
%ADD34C,0.267000*%
%TD.AperFunction*%
D20*
X+243840Y-1968500D02*
X+1280160Y-1968500D01*
X+1280160Y-1079500D01*
X+243840Y-1079500D01*
X+243840Y-1968500D01*
D72*
X+381000Y-1905000D02*
X+381000Y-1905000D01*
D73*
X+485648Y-1420368D02*
X+485648Y-1593088D01*
X+520192Y-1627632D01*
X+658368Y-1627632D01*
X+692912Y-1593088D01*
X+692912Y-1420368D01*
X+796544Y-1454912D02*
X+831088Y-1420368D01*
X+934720Y-1420368D01*
X+969264Y-1454912D01*
X+969264Y-1489456D01*
X+934720Y-1524000D01*
X+831088Y-1524000D01*
X+796544Y-1558544D01*
X+796544Y-1627632D01*
X+969264Y-1627632D01*
D17*
X+0Y-3175000D02*
X+2413000Y-3175000D01*
X+2413000Y+254000D01*
X+0Y+254000D01*
X+0Y-3175000D01*
D30*
X+1590000Y-1295000D02*
X+2220000Y-1295000D01*
X+2220000Y-737000D01*
X+1590000Y-737000D01*
X+1590000Y-1295000D01*
D31*
X+1905000Y-1143000D02*
X+1905000Y-1143000D01*
D32*
X+1735668Y-1037167D02*
X+1735668Y-1058334D01*
X+1756834Y-1079500D01*
X+1841500Y-1079500D01*
X+1862667Y-1058334D01*
X+1862667Y-952501D01*
X+1947333Y-994834D02*
X+1989666Y-952501D01*
X+1989666Y-1079500D01*
D30*
X+1590000Y-2311000D02*
X+2220000Y-2311000D01*
X+2220000Y-1753000D01*
X+1590000Y-1753000D01*
X+1590000Y-2311000D01*
D31*
X+1905000Y-1905000D02*
X+1905000Y-1905000D01*
D32*
X+1735668Y-2053167D02*
X+1735668Y-2074334D01*
X+1756834Y-2095500D01*
X+1841500Y-2095500D01*
X+1862667Y-2074334D01*
X+1862667Y-1968501D01*
X+1926166Y-1989667D02*
X+1947333Y-1968501D01*
X+2010832Y-1968501D01*
X+2031999Y-1989667D01*
X+2031999Y-2010834D01*
X+2010832Y-2032000D01*
X+1947333Y-2032000D01*
X+1926166Y-2053167D01*
X+1926166Y-2095500D01*
X+2031999Y-2095500D01*
D30*
X+237000Y-723000D02*
X+237000Y-39000D01*
X+1033000Y-39000D01*
X+1033000Y-723000D01*
X+237000Y-723000D01*
D33*
X+381000Y-381000D02*
X+381000Y-381000D01*
D34*
X+421400Y-407700D02*
X+421400Y-434400D01*
X+448100Y-461100D01*
X+554900Y-461100D01*
X+581600Y-434400D01*
X+581600Y-300900D01*
X+661700Y-327600D02*
X+688400Y-300900D01*
X+768500Y-300900D01*
X+795200Y-327600D01*
X+795200Y-354300D01*
X+768500Y-381000D01*
X+795200Y-407700D01*
X+795200Y-434400D01*
X+768500Y-461100D01*
X+688400Y-461100D01*
X+661700Y-434400D01*
X+715100Y-381000D02*
X+768500Y-381000D01*
M02*
